<?xml version="1.0" standalone="no"?>
<!DOCTYPE svg PUBLIC "-//W3C//DTD SVG 20010904//EN"
 "http://www.w3.org/TR/2001/REC-SVG-20010904/DTD/svg10.dtd">
<svg version="1.0" xmlns="http://www.w3.org/2000/svg"
 width="260.000000pt" height="260.000000pt" viewBox="0 0 260.000000 260.000000"
 preserveAspectRatio="xMidYMid meet">
<metadata>
Created by potrace 1.14, written by Peter Selinger 2001-2017
</metadata>
<g transform="translate(0.000000,260.000000) scale(0.100000,-0.100000)"
fill="#000000" stroke="none">
<path d="M991 2543 c-12 -16 -19 -23 -17 -17 3 7 -1 15 -10 18 -9 3 -12 2 -9
-5 4 -6 -1 -17 -11 -25 -11 -9 -13 -12 -5 -8 9 4 12 2 9 -7 -3 -8 -10 -14 -15
-14 -6 0 -15 -4 -20 -9 -5 -5 -2 -6 6 -1 11 6 13 3 9 -13 -3 -12 0 -26 7 -32
16 -13 8 -43 -8 -33 -5 3 -7 1 -3 -5 3 -6 2 -13 -4 -17 -5 -3 -10 -11 -10 -18
0 -6 6 -3 13 8 11 14 16 15 22 5 5 -9 4 -11 -3 -6 -8 4 -12 -1 -13 -13 -1 -12
-2 -27 -3 -33 -1 -7 3 -19 8 -27 8 -11 8 -13 -1 -8 -6 4 -15 2 -19 -4 -4 -8
-3 -9 5 -5 8 6 11 0 8 -21 -2 -15 1 -34 7 -42 8 -11 8 -13 -1 -7 -7 4 -13 3
-13 -3 0 -5 8 -12 18 -14 15 -4 14 -5 -2 -6 -20 -1 -20 -1 0 -17 17 -14 17
-15 1 -10 -11 3 -16 2 -12 -4 3 -6 0 -10 -7 -10 -10 0 -10 -2 -1 -8 7 -4 11
-18 8 -30 -2 -13 3 -26 13 -33 16 -10 16 -10 0 -5 -10 3 -20 1 -23 -4 -4 -6 1
-10 9 -10 8 0 14 -8 13 -19 -1 -12 -7 -17 -17 -14 -8 2 -4 -3 10 -11 17 -11
20 -15 9 -16 -12 0 -15 -8 -13 -27 1 -15 -3 -34 -9 -42 -9 -12 -9 -13 0 -7 9
5 12 -1 9 -23 -4 -35 2 -45 19 -31 8 7 11 4 10 -10 -1 -11 -5 -23 -10 -27 -4
-5 -5 -2 0 6 6 10 4 12 -4 6 -9 -5 -10 -10 -2 -18 6 -6 11 -16 11 -21 0 -6 -5
-4 -11 4 -8 12 -10 9 -6 -13 2 -15 0 -30 -6 -34 -6 -4 -7 -1 -2 8 5 8 4 10 0
6 -5 -4 -10 -15 -11 -25 -2 -9 -8 -18 -13 -20 -6 -2 -11 -8 -11 -13 0 -6 6 -7
13 -3 9 6 9 5 0 -8 -7 -8 -10 -18 -6 -21 3 -4 -2 -7 -13 -7 -11 0 -15 -3 -8
-8 25 -16 4 -72 -27 -72 -11 0 -18 -4 -15 -9 3 -5 -8 -11 -24 -15 -20 -3 -30
-12 -30 -23 0 -15 -2 -15 -9 -4 -8 12 -11 9 -16 -12 -4 -16 -14 -27 -24 -27
-12 0 -13 -2 -3 -9 11 -7 11 -11 -1 -22 -16 -16 -28 -77 -16 -84 4 -3 5 -14 2
-26 -3 -12 -1 -24 6 -28 6 -4 12 -24 13 -44 1 -23 5 -34 12 -30 6 4 6 0 -1 -8
-7 -8 -10 -28 -8 -45 2 -16 2 -23 -1 -16 -9 19 -24 14 -24 -7 0 -11 -6 -22
-12 -24 -10 -4 -10 -6 0 -6 6 -1 12 -6 12 -13 0 -6 -3 -8 -7 -5 -3 4 -12 -1
-19 -11 -9 -13 -10 -20 -1 -31 9 -11 9 -13 1 -8 -7 4 -15 0 -18 -9 -3 -8 -2
-13 2 -10 5 3 9 -1 9 -8 0 -8 -7 -12 -15 -8 -10 3 -13 1 -8 -6 4 -8 0 -12 -11
-12 -15 0 -16 -2 -3 -10 13 -9 13 -11 0 -20 -13 -9 -13 -10 0 -10 9 -1 6 -6
-10 -16 -14 -8 -18 -13 -9 -11 9 3 16 -1 16 -9 0 -7 -4 -11 -8 -8 -4 2 -10 0
-14 -6 -3 -5 -2 -10 2 -10 5 0 9 -8 9 -19 0 -11 -5 -17 -13 -14 -9 4 -11 0 -6
-13 4 -11 3 -15 -4 -11 -14 9 -23 -15 -18 -43 3 -18 0 -20 -18 -14 -22 6 -22
6 -2 -10 11 -8 15 -16 9 -16 -6 0 -10 -10 -10 -22 1 -13 -7 -34 -18 -47 -20
-23 -20 -24 -2 -17 16 5 17 4 6 -9 -7 -8 -10 -21 -7 -30 4 -8 1 -17 -5 -21 -7
-5 -8 -2 -3 7 7 12 6 12 -6 0 -11 -11 -11 -14 -1 -18 10 -4 8 -9 -5 -20 -10
-8 -13 -12 -7 -9 7 3 14 -1 18 -9 3 -8 0 -15 -7 -16 -7 0 -3 -4 8 -9 11 -5 14
-9 6 -9 -8 -1 -11 -8 -8 -20 3 -15 1 -18 -12 -14 -12 3 -11 1 3 -11 20 -16 20
-16 0 -17 -18 0 -18 -1 1 -9 11 -5 15 -9 9 -9 -7 -1 -15 -8 -18 -17 -5 -14 -4
-15 9 -4 9 7 18 10 22 6 3 -3 1 -6 -5 -6 -7 0 -12 -9 -12 -21 0 -11 -4 -17
-10 -14 -6 4 -6 -3 0 -21 9 -23 9 -25 -4 -15 -12 10 -13 8 -9 -10 4 -13 2 -20
-4 -16 -5 3 -10 0 -10 -8 0 -8 3 -12 7 -10 4 2 6 -8 5 -23 -1 -18 -7 -27 -18
-26 -9 1 -15 -2 -12 -6 3 -5 1 -11 -5 -15 -5 -3 -10 0 -10 7 0 10 -2 10 -8 1
-4 -7 -17 -11 -28 -9 -12 3 -21 -1 -21 -9 0 -7 7 -11 16 -8 12 3 12 2 -2 -7
-9 -6 -22 -8 -27 -5 -6 3 -10 2 -10 -3 0 -6 7 -12 15 -16 8 -3 15 -12 15 -21
0 -8 5 -16 10 -16 6 -1 24 -3 40 -4 44 -4 46 -5 32 -14 -11 -7 -11 -9 2 -14 9
-4 15 -1 13 5 -1 6 4 13 12 16 8 3 11 0 7 -7 -5 -7 -1 -9 11 -4 16 6 17 5 3
-13 -14 -17 -14 -18 1 -6 12 9 24 9 40 3 13 -5 18 -10 11 -10 -7 -1 -11 -5 -7
-10 3 -5 1 -12 -5 -16 -6 -4 -8 -10 -6 -14 6 -10 37 -8 55 4 9 5 12 4 8 -2 -4
-6 4 -13 18 -16 14 -2 28 0 32 6 3 5 1 7 -5 3 -6 -3 -13 -3 -16 2 -2 4 6 8 19
8 13 0 21 -4 19 -8 -3 -4 -1 -8 5 -8 5 0 12 6 14 13 4 9 6 9 6 0 1 -7 6 -13
12 -13 5 0 7 5 3 12 -5 8 3 9 31 5 33 -5 35 -4 20 7 -16 12 -16 13 6 11 17 -1
23 -7 21 -21 -2 -15 -1 -16 7 -4 5 8 8 17 5 21 -2 4 10 6 26 5 25 -1 29 -4 24
-21 -5 -20 -5 -20 8 0 7 11 19 21 27 23 12 3 12 1 1 -13 -11 -13 -11 -18 2
-31 11 -11 18 -13 23 -5 3 6 1 10 -6 9 -6 -2 -14 3 -17 11 -3 10 1 13 16 9 11
-3 30 1 41 8 15 11 22 11 27 3 4 -8 3 -9 -4 -5 -6 4 -16 -4 -23 -16 -9 -19 -9
-21 2 -11 16 16 43 17 33 1 -4 -7 -3 -8 5 -4 6 4 9 11 7 15 -3 3 4 7 14 7 10
0 16 -4 14 -8 -3 -4 2 -8 11 -8 9 0 14 4 11 9 -4 5 2 8 11 6 10 -2 21 -4 26
-4 4 -1 6 -5 5 -10 -2 -5 2 -9 7 -9 6 0 9 4 7 9 -1 5 2 9 8 9 5 0 10 -4 10
-10 0 -5 5 -10 11 -10 5 0 8 4 4 9 -3 5 -1 12 4 15 5 4 12 2 15 -3 3 -5 21 -8
41 -6 19 1 32 -2 29 -7 -3 -4 -9 -6 -14 -3 -5 3 -11 2 -13 -2 -3 -5 13 -9 36
-10 22 -2 46 -8 51 -14 8 -7 5 -8 -9 -3 -21 8 -20 6 7 -14 12 -10 18 -10 24
-1 5 8 3 9 -6 4 -9 -5 -11 -4 -6 4 4 6 11 9 16 6 4 -3 11 1 14 7 3 7 3 1 1
-15 -2 -15 0 -25 6 -22 5 4 9 13 9 21 0 12 4 13 22 3 18 -9 20 -9 15 4 -4 12
-1 15 14 12 17 -4 19 -2 8 11 -10 12 -9 13 6 8 13 -5 16 -4 11 4 -10 17 0 15
18 -4 15 -14 16 -14 16 1 0 12 4 14 19 5 23 -12 34 -13 28 -2 -3 4 12 7 33 8
27 0 36 -4 33 -13 -3 -7 0 -13 5 -13 6 0 12 7 14 16 2 10 15 18 31 20 24 2 26
0 16 -12 -16 -19 -4 -18 15 2 9 8 16 11 16 5 0 -6 5 -11 11 -11 5 0 8 4 5 8
-3 5 1 9 9 9 8 0 15 -4 15 -8 0 -4 11 -6 24 -5 13 0 22 5 19 10 -3 5 0 6 8 4
8 -3 20 2 27 11 12 14 13 14 8 -1 -3 -10 -1 -18 4 -18 6 0 10 8 10 18 1 16 1
16 11 0 5 -9 16 -15 24 -12 8 4 13 10 10 14 -3 5 0 12 6 16 8 4 9 3 5 -4 -5
-8 3 -11 24 -8 17 2 33 -1 36 -6 3 -5 13 -3 22 4 15 12 16 11 3 -4 -7 -10 -18
-15 -25 -11 -7 4 -6 1 1 -9 7 -8 11 -17 8 -20 -3 -2 2 -5 10 -5 11 0 12 4 4
14 -6 7 -8 13 -3 14 5 0 22 2 37 4 25 3 27 2 15 -12 -12 -15 -11 -15 10 -4 12
6 22 9 22 6 0 -3 10 0 23 6 19 10 20 10 10 -2 -9 -11 -7 -14 12 -14 13 0 21 3
18 8 -2 4 1 7 7 7 6 0 8 6 5 13 -4 6 0 4 9 -7 14 -18 15 -18 13 3 -1 11 -5 21
-9 21 -4 0 -8 4 -8 10 0 5 6 7 13 4 8 -3 20 3 27 13 12 15 12 16 0 6 -16 -15
-34 -17 -26 -5 3 5 -1 9 -9 9 -8 0 -12 -4 -10 -8 3 -3 -3 -13 -13 -20 -14 -11
-15 -11 -5 0 6 7 9 20 6 28 -5 12 -7 12 -14 1 -6 -9 -8 -5 -6 12 2 14 8 23 13
20 5 -3 8 -8 6 -12 -5 -17 14 -7 26 13 10 15 17 18 24 11 7 -7 17 -8 29 -2 12
7 22 6 33 -5 17 -17 30 -20 21 -5 -3 6 1 10 10 10 11 0 15 -5 11 -15 -4 -13
-2 -13 14 -5 13 7 21 7 25 0 7 -12 25 -4 25 11 0 5 -11 7 -24 5 -20 -4 -23 -1
-19 12 4 9 8 11 10 5 5 -13 33 -6 33 7 0 8 -39 25 -51 23 -3 -1 -6 4 -6 12 0
12 4 11 21 -1 24 -16 36 -18 36 -4 0 6 -3 9 -7 9 -19 -3 -34 2 -29 9 3 5 -18
8 -46 7 -42 -1 -51 2 -58 19 -5 12 -9 16 -9 11 -1 -15 -46 -11 -66 5 -13 11
-15 11 -10 -1 4 -11 -3 -14 -31 -13 -37 2 -58 19 -47 39 4 5 3 7 -2 3 -10 -10
-37 11 -29 23 3 5 -2 6 -10 3 -9 -3 -16 -10 -16 -16 0 -5 4 -7 9 -4 11 7 47
-32 38 -41 -4 -3 -7 -1 -7 6 0 7 -4 9 -10 6 -5 -3 -10 1 -10 9 0 10 -7 13 -20
11 -11 -2 -18 0 -15 5 3 5 1 11 -5 15 -5 3 -10 1 -10 -6 0 -7 -3 -10 -6 -7 -3
4 2 18 11 32 15 22 20 24 39 14 11 -7 25 -11 29 -10 5 1 6 -2 2 -8 -4 -6 5
-10 20 -10 15 0 24 4 20 10 -4 7 3 7 22 0 26 -9 27 -9 9 5 -19 14 -19 15 -2
15 16 0 17 2 5 17 -12 15 -12 16 4 10 15 -6 16 -4 6 14 -6 12 -7 19 -1 15 5
-3 12 1 15 9 4 8 1 12 -6 9 -7 -2 -13 4 -14 16 -1 11 3 20 8 20 6 0 7 -5 3
-12 -4 -6 -3 -8 4 -5 13 9 4 47 -12 47 -6 0 -2 8 9 17 16 13 17 15 3 10 -12
-4 -18 -1 -18 8 0 8 -5 15 -11 15 -5 0 -7 6 -3 13 6 8 3 8 -9 -1 -14 -12 -16
-11 -13 5 3 13 -2 19 -14 19 -14 0 -16 -3 -8 -13 18 -22 0 -14 -22 10 -12 12
-21 18 -20 12 5 -24 -1 -27 -16 -9 -8 10 -13 14 -10 8 3 -7 -1 -15 -10 -18 -8
-3 -13 -2 -10 3 3 5 -1 14 -9 21 -13 11 -14 10 -9 -3 4 -11 0 -15 -13 -13 -10
2 -22 -2 -26 -8 -6 -7 -7 -6 -4 4 2 8 11 13 18 12 8 -2 11 0 6 4 -13 14 -45
11 -40 -3 4 -9 0 -11 -11 -7 -9 3 -14 9 -12 13 3 4 -4 7 -15 7 -10 0 -19 -5
-19 -11 0 -5 -5 -3 -10 5 -7 11 -10 11 -10 2 0 -7 -5 -10 -10 -7 -6 4 -8 11
-5 16 3 5 -1 6 -9 3 -9 -3 -13 -11 -9 -17 4 -6 1 -7 -6 -3 -7 5 -10 15 -7 25
5 14 5 14 -6 1 -15 -18 -48 -15 -48 5 0 7 -5 15 -12 17 -13 5 -18 188 -5 188
5 0 6 4 3 9 -4 5 -1 11 4 13 6 2 12 13 13 25 0 12 5 19 9 17 5 -3 5 -10 2 -16
-4 -6 -2 -8 4 -4 6 3 9 18 6 31 -2 14 0 25 5 25 6 0 7 7 4 17 -4 10 -2 14 4
10 7 -5 9 0 6 14 -4 12 0 25 8 30 8 5 9 9 3 9 -6 0 -11 10 -11 22 -1 84 -3 99
-15 92 -10 -6 -10 -4 0 8 7 9 12 20 11 24 -3 21 2 26 15 15 11 -9 16 -9 22 0
5 8 3 10 -7 5 -8 -4 -6 -1 3 7 10 8 14 18 10 23 -4 4 2 2 12 -6 13 -10 17 -10
12 -2 -6 11 10 17 36 13 4 0 4 7 1 17 -6 15 -5 15 10 4 14 -12 16 -11 12 8 -4
18 -2 20 11 9 8 -7 14 -8 13 -3 -4 21 2 35 11 29 6 -4 7 -12 4 -18 -4 -7 -3
-8 2 -4 9 8 10 12 13 38 1 8 7 7 18 -2 9 -8 14 -9 10 -2 -4 6 -4 18 -1 27 5
13 8 13 19 2 9 -8 28 -12 52 -9 44 5 64 19 40 29 -9 3 -17 14 -17 23 0 14 2
14 10 1 7 -12 12 -12 22 -2 9 9 9 12 -2 12 -11 1 -11 3 3 11 9 5 17 15 17 22
0 7 -4 6 -10 -3 -6 -10 -10 -11 -10 -2 0 7 -14 12 -35 12 -19 0 -35 4 -35 9 0
4 10 7 23 7 30 -3 57 11 57 30 0 11 -9 15 -27 14 -59 -4 -70 -1 -69 22 1 25
-56 60 -87 54 -15 -4 -16 -2 -6 10 9 12 9 13 -3 9 -16 -7 -70 48 -59 61 3 5 5
8 2 7 -6 -3 -27 21 -34 40 -3 9 -2 17 4 17 6 0 8 4 4 9 -3 5 -6 32 -6 60 -1
28 -5 51 -8 51 -6 0 -11 25 -14 67 0 7 -4 10 -9 7 -4 -3 -8 1 -8 8 0 7 -9 19
-20 26 -12 7 -20 8 -20 2 0 -5 -9 -10 -20 -10 -11 0 -20 -5 -20 -11 0 -5 -4
-7 -10 -4 -5 3 -10 -1 -10 -9 0 -9 -4 -16 -9 -16 -5 0 -12 -9 -16 -20 -3 -11
-9 -19 -13 -19 -20 3 -23 -3 -11 -18 12 -15 12 -16 -5 -10 -16 6 -17 5 -6 -8
10 -12 10 -15 -3 -15 -9 0 -13 -6 -11 -17 4 -14 -2 -18 -21 -19 -19 -2 -25 2
-21 12 3 7 -5 20 -17 29 -12 8 -18 15 -14 15 18 0 -85 106 -111 114 -12 4 -20
11 -17 16 3 5 -3 8 -14 7 -11 0 -19 -4 -19 -7 2 -19 -4 -28 -21 -33 -15 -4
-19 0 -16 14 2 11 0 19 -5 19 -13 0 -20 29 -8 36 6 4 8 3 5 -3 -4 -6 0 -13 8
-16 11 -5 12 -1 6 16 -5 12 -16 21 -25 21 -9 -1 -13 3 -10 8 3 5 18 7 33 4
l26 -6 -25 15 c-18 10 -21 14 -8 15 21 0 32 16 17 26 -8 4 -9 3 -5 -4 4 -7 1
-12 -8 -12 -19 0 -21 11 -4 28 7 7 9 12 5 12 -4 0 -3 9 3 20 9 17 8 19 -7 13
-15 -6 -16 -4 -5 9 9 11 10 18 2 23 -5 3 -10 1 -10 -6 0 -7 -3 -9 -6 -6 -4 4
-1 13 6 22 7 8 9 15 5 15 -4 0 -1 8 6 17 12 15 12 16 -3 10 -12 -4 -15 -2 -11
8 3 8 9 12 14 9 5 -3 9 0 9 6 0 6 -7 13 -16 17 -12 5 -13 7 -3 14 8 5 17 3 22
-4 6 -8 7 -7 4 3 -2 8 -10 14 -17 12 -10 -2 -10 1 1 14 13 15 11 16 -11 11
-14 -4 -19 -4 -12 -1 6 3 12 12 12 20 0 9 -5 12 -12 8 -7 -4 -8 -3 -4 4 4 6
13 9 21 5 8 -3 15 0 15 6 0 6 -6 11 -12 11 -9 0 -10 3 -2 8 30 19 18 76 -14
66 -14 -5 -15 -4 -2 5 13 10 10 16 -19 41 -19 16 -39 26 -44 23 -6 -4 -7 -1
-2 7 6 10 2 12 -16 7 -22 -5 -22 -5 -6 7 24 18 21 29 -4 16 -24 -13 -54 -5
-43 11 4 8 3 9 -5 5 -6 -4 -9 -11 -6 -16 3 -5 0 -12 -6 -16 -7 -4 -9 -3 -6 3
4 6 0 16 -8 23 -13 11 -14 10 -10 -3 4 -8 1 -18 -5 -22 -6 -3 -9 -1 -8 6 2 6
-3 14 -11 17 -8 2 -11 1 -8 -4 5 -8 -11 -9 -56 -5 -5 1 -5 6 -2 11 12 20 -1
10 -24 -17z m314 -122 c3 -6 -3 -9 -14 -8 -11 0 -17 5 -15 9 7 11 22 10 29 -1z
m-5 -25 c0 -2 -7 -7 -16 -10 -8 -3 -12 -2 -9 4 6 10 25 14 25 6z m-3 -283 c0
-9 -4 -10 -14 -2 -7 6 -13 12 -13 14 0 1 6 2 13 2 8 0 14 -6 14 -14z m-350
-218 c0 -8 -4 -12 -9 -9 -5 3 -6 10 -3 15 9 13 12 11 12 -6z m158 -77 c5 4 5
1 1 -6 -4 -7 -12 -9 -18 -6 -7 4 -8 2 -4 -4 10 -16 49 5 41 21 -4 7 2 2 13
-10 20 -23 39 -32 27 -13 -4 6 1 7 11 3 13 -5 15 -3 9 7 -6 9 -4 11 4 5 9 -5
10 -10 2 -18 -6 -6 -11 -16 -11 -21 0 -7 3 -8 8 -1 4 6 16 17 26 25 18 13 19
13 11 0 -5 -8 -10 -21 -12 -29 -1 -8 -7 -17 -13 -21 -9 -5 -9 -9 -1 -14 6 -4
11 -3 11 2 0 5 7 9 15 9 10 0 12 -4 5 -12 -11 -13 -1 -57 11 -49 5 3 9 0 9 -5
0 -6 -6 -11 -12 -11 -9 0 -9 -3 -3 -8 13 -8 18 -55 6 -47 -12 7 -8 -29 4 -37
6 -5 5 -8 -3 -8 -7 0 -10 -4 -7 -10 3 -5 2 -10 -2 -10 -10 0 -9 -72 1 -88 4
-7 2 -12 -4 -12 -8 0 -9 -7 -5 -17 4 -10 8 -24 8 -30 0 -7 4 -13 9 -13 5 0 6
-4 3 -10 -3 -5 -1 -10 4 -10 6 0 11 -5 11 -11 0 -5 -6 -7 -12 -3 -9 5 -9 3 1
-9 7 -9 18 -14 24 -10 6 3 7 1 3 -5 -4 -7 -3 -12 2 -12 4 0 19 -15 32 -32 15
-21 18 -28 6 -19 -10 8 -32 16 -49 16 -18 1 -41 6 -52 10 -29 13 -128 10 -133
-4 -3 -8 -8 -9 -17 -1 -9 7 -16 6 -25 -5 -7 -8 -16 -12 -21 -9 -5 3 -9 0 -9
-7 0 -8 -5 -7 -17 2 -11 10 -14 10 -9 2 4 -7 2 -13 -3 -13 -6 0 -11 5 -11 11
0 5 -4 8 -9 4 -5 -3 -16 1 -24 9 -8 8 -16 14 -18 12 -2 -2 -14 7 -27 20 -12
13 -18 24 -12 24 6 0 8 5 5 10 -4 6 -12 7 -18 3 -7 -4 -7 0 1 10 8 9 11 21 7
26 -3 6 0 9 7 6 7 -3 19 4 26 15 12 20 12 21 -10 10 l-23 -11 22 19 c17 15 19
22 10 31 -9 9 -8 11 7 5 14 -5 17 -4 11 5 -6 10 -3 11 16 1 20 -10 22 -10 12
1 -11 10 -8 15 15 26 15 7 19 11 9 8 -16 -4 -16 -3 -1 28 17 31 16 31 -1 17
-14 -11 -17 -11 -11 -1 5 8 3 17 -5 22 -12 7 -11 9 1 9 13 0 13 1 0 11 -12 9
-11 10 6 6 13 -3 21 1 21 9 0 7 -4 11 -9 8 -10 -6 -10 -1 -2 20 3 9 9 14 13
11 4 -2 8 2 8 10 0 8 -4 12 -9 9 -4 -3 -8 2 -8 11 0 9 4 14 9 11 4 -3 17 4 27
17 16 18 16 19 2 8 -10 -7 -18 -10 -18 -5 0 14 14 31 30 37 12 4 11 6 -2 6
-10 1 -18 6 -18 12 0 7 9 9 21 6 17 -5 18 -3 8 10 -11 12 -9 18 11 33 16 12
29 15 36 9 6 -5 15 -5 19 -1z m885 -453 c0 -12 -19 -12 -23 0 -4 9 -1 12 9 8
7 -3 14 -7 14 -8z m-1166 -187 c-5 -7 -2 -9 8 -5 12 4 15 0 11 -16 -4 -17 -3
-19 6 -7 9 12 11 12 16 -2 4 -9 13 -19 21 -22 9 -3 12 -1 9 4 -10 16 11 11 26
-6 10 -13 10 -17 -2 -25 -8 -5 -9 -9 -3 -9 6 0 11 -16 12 -35 1 -24 -2 -34
-10 -29 -7 5 -8 3 -2 -7 4 -8 9 -18 10 -24 1 -5 6 -19 10 -29 5 -14 4 -17 -4
-12 -8 5 -10 2 -6 -8 3 -9 11 -13 17 -9 6 4 8 0 4 -10 -4 -10 -1 -17 6 -18 9
0 8 -2 -1 -6 -10 -4 -9 -9 5 -20 10 -8 12 -12 5 -8 -9 5 -12 0 -10 -19 2 -14
7 -28 11 -32 4 -4 2 -13 -4 -20 -7 -8 -7 -14 1 -19 7 -4 7 -12 0 -26 -8 -14
-7 -19 2 -20 10 0 10 -2 1 -6 -7 -2 -13 -9 -13 -14 0 -6 4 -8 9 -4 6 3 8 -4 5
-17 -3 -13 -6 -28 -6 -33 -1 -6 -7 -16 -15 -23 -10 -10 -13 -10 -13 0 0 9 -3
9 -10 -2 -8 -13 -10 -13 -10 -1 0 11 -4 10 -13 -4 -11 -14 -16 -15 -22 -5 -5
9 -4 11 3 6 7 -4 12 -2 12 3 0 14 -17 14 -25 1 -3 -5 -17 -10 -31 -10 -17 0
-23 4 -18 12 4 7 3 8 -5 4 -6 -4 -8 -12 -5 -18 4 -6 1 -8 -7 -6 -8 3 -13 11
-11 18 2 10 0 11 -11 2 -8 -7 -18 -8 -22 -4 -5 4 -6 0 -3 -8 4 -11 -3 -16 -29
-17 -20 -1 -31 2 -27 8 7 12 -35 -10 -51 -26 -5 -6 -9 -8 -8 -6 2 2 -2 10 -9
18 -8 11 -7 12 6 7 9 -3 16 -1 16 5 0 6 -4 11 -9 11 -5 0 -11 11 -13 25 -3 13
-2 24 1 23 20 -2 22 4 5 17 -14 11 -15 14 -3 9 10 -3 20 0 25 7 4 7 3 10 -3 6
-6 -4 -13 0 -16 8 -4 9 -1 12 7 9 8 -3 17 0 22 7 4 8 3 10 -4 5 -7 -4 -12 -2
-12 3 0 6 3 11 8 11 4 0 15 12 25 26 10 13 15 23 10 22 -4 -2 -8 2 -8 7 0 6 3
9 7 8 4 -2 3 9 -3 23 -5 15 -7 29 -4 32 3 3 5 0 5 -6 0 -7 5 -12 11 -12 5 0 8
4 5 9 -3 5 1 11 9 15 17 6 20 26 4 26 -5 0 -8 -4 -5 -8 3 -5 -1 -9 -8 -9 -11
0 -12 4 -3 18 6 10 15 15 19 13 4 -3 8 6 8 20 0 20 4 24 18 20 14 -5 14 -4 3
4 -8 6 -16 18 -17 27 -2 13 0 14 12 4 12 -10 13 -9 8 6 -5 12 -4 16 4 11 7 -4
10 1 7 14 -2 11 1 20 7 20 7 0 6 6 -2 15 -9 11 -9 15 -1 15 7 0 9 5 5 12 -5 7
-2 9 8 6 12 -5 14 0 12 23 -2 18 0 28 6 24 6 -3 10 2 10 13 0 10 3 22 7 25 10
11 15 8 7 -5z m562 -423 c-1 -17 -5 -33 -11 -37 -6 -5 -5 -8 4 -8 11 0 11 -3
1 -15 -10 -12 -10 -15 1 -15 8 -1 3 -7 -11 -15 -14 -8 -19 -14 -11 -15 8 0 12
-2 9 -5 -8 -9 -38 6 -32 16 3 5 -2 6 -10 3 -9 -3 -14 -9 -11 -13 2 -4 -2 -8
-9 -8 -9 0 -12 7 -8 16 5 14 2 13 -14 -1 -19 -17 -21 -17 -35 0 -25 30 -34 46
-19 37 9 -6 11 -4 5 6 -5 7 -10 33 -11 56 -1 33 3 44 17 48 23 8 42 -3 33 -17
-4 -7 -2 -8 5 -4 6 4 9 11 7 15 -10 16 55 4 75 -15 l22 -19 -18 30 c-19 30
-19 30 1 10 12 -12 20 -33 20 -50z m-716 30 c-7 -9 -15 -13 -19 -10 -3 3 1 10
9 15 21 14 24 12 10 -5z m96 -385 c5 5 19 3 34 -6 l25 -15 -25 7 c-23 6 -24 6
-10 -11 13 -17 13 -18 0 -10 -22 14 -40 15 -40 2 0 -8 -4 -7 -12 1 -16 16 -31
15 -22 0 5 -10 4 -10 -6 -1 -7 6 -19 9 -28 5 -11 -4 -10 0 4 14 10 11 21 16
22 12 5 -12 32 -10 32 3 0 5 -5 7 -12 3 -7 -5 -8 -3 -3 6 6 10 10 10 20 -3 7
-10 15 -13 21 -7z m1170 -9 c-4 -6 -14 -7 -23 -4 -12 5 -14 3 -8 -7 5 -9 4
-11 -4 -6 -15 10 -3 29 15 22 8 -3 14 0 14 6 0 6 3 9 6 5 3 -3 3 -10 0 -16z
m-1406 -186 c9 5 11 4 6 -3 -11 -19 5 -14 21 6 13 15 13 15 3 -5 -13 -27 -4
-29 24 -5 20 16 20 16 7 -1 -13 -16 -12 -18 13 -13 15 3 24 1 21 -5 -4 -5 -10
-7 -14 -5 -4 3 -13 1 -21 -4 -8 -5 -25 -3 -42 6 -16 8 -33 12 -38 9 -5 -3 -11
-1 -14 4 -3 5 -19 7 -36 6 -17 -1 -32 1 -35 5 -2 4 14 6 35 5 23 -1 40 3 40 9
0 6 4 5 9 -3 5 -8 14 -10 21 -6z m1234 -84 c3 -5 -1 -11 -9 -14 -9 -4 -12 -1
-8 9 6 16 10 17 17 5z"/>
<path d="M1065 1809 c-4 -6 -5 -12 -2 -15 2 -3 7 2 10 11 7 17 1 20 -8 4z"/>
<path d="M713 637 c0 -8 6 -14 14 -14 9 0 10 4 2 14 -6 7 -12 13 -14 13 -1 0
-2 -6 -2 -13z"/>
<path d="M1220 2546 c0 -9 90 -96 99 -96 3 0 0 5 -6 11 -6 6 -9 19 -6 28 3 10
2 12 -4 5 -6 -9 -11 -8 -21 2 -11 12 -10 14 5 14 15 0 16 2 3 10 -10 6 -16 6
-18 0 -6 -18 -21 0 -16 18 5 14 4 15 -5 2 -10 -13 -12 -13 -21 0 -5 8 -10 11
-10 6z"/>
<path d="M918 2413 c7 -3 16 -2 19 1 4 3 -2 6 -13 5 -11 0 -14 -3 -6 -6z"/>
<path d="M1303 2195 c0 -8 4 -12 9 -9 5 3 6 10 3 15 -9 13 -12 11 -12 -6z"/>
<path d="M1315 1960 c-3 -5 -1 -10 4 -10 6 0 11 5 11 10 0 6 -2 10 -4 10 -3 0
-8 -4 -11 -10z"/>
<path d="M856 1621 c-4 -5 -2 -12 3 -15 5 -4 12 -2 15 3 4 5 2 12 -3 15 -5 4
-12 2 -15 -3z"/>
<path d="M543 758 c3 -9 1 -19 -6 -22 -9 -3 -9 -5 0 -5 18 -1 23 13 11 29 -8
12 -9 12 -5 -2z"/>
<path d="M1965 390 c3 -6 1 -10 -6 -10 -7 0 -10 -3 -6 -6 3 -3 13 -2 22 4 16
8 16 9 1 15 -10 4 -15 3 -11 -3z"/>
<path d="M485 321 c-3 -5 -2 -12 3 -15 5 -3 9 1 9 9 0 17 -3 19 -12 6z"/>
<path d="M2046 318 c3 -5 10 -6 15 -3 13 9 11 12 -6 12 -8 0 -12 -4 -9 -9z"/>
<path d="M420 300 c-9 -6 -10 -10 -3 -10 6 0 15 5 18 10 8 12 4 12 -15 0z"/>
<path d="M385 211 c-3 -5 -2 -12 3 -15 5 -3 9 1 9 9 0 17 -3 19 -12 6z"/>
<path d="M2150 195 c0 -8 4 -15 10 -15 5 0 7 7 4 15 -4 8 -8 15 -10 15 -2 0
-4 -7 -4 -15z"/>
<path d="M2203 189 c-2 -23 3 -25 10 -4 4 8 3 16 -1 19 -4 3 -9 -4 -9 -15z"/>
<path d="M560 131 c0 -7 -5 -9 -12 -5 -7 5 -8 3 -3 -5 5 -9 10 -10 18 -2 6 6
8 14 4 18 -4 3 -7 1 -7 -6z"/>
<path d="M2233 115 c0 -8 4 -12 9 -9 5 3 6 10 3 15 -9 13 -12 11 -12 -6z"/>
<path d="M857 113 c-4 -3 -7 -11 -7 -17 0 -6 5 -5 12 2 6 6 9 14 7 17 -3 3 -9
2 -12 -2z"/>
<path d="M1895 109 c-4 -6 -4 -13 -1 -16 3 -4 6 -1 6 7 0 10 4 10 18 -1 15
-13 16 -12 3 4 -16 20 -18 20 -26 6z"/>
<path d="M1176 87 c3 -10 9 -15 12 -12 3 3 0 11 -7 18 -10 9 -11 8 -5 -6z"/>
</g>
</svg>
